<svg class="main-svg" xmlns="http://www.w3.org/2000/svg" xmlns:xlink="http://www.w3.org/1999/xlink" width="182" height="260" style="" viewBox="0 0 182 260"><rect x="0" y="0" width="182" height="260" style="fill: rgb(0, 0, 0); fill-opacity: 0;"/><defs id="defs-b3a408"><g class="clips"><clipPath id="clipb3a408xyplot" class="plotclip"><rect width="132" height="241"/></clipPath><clipPath class="axesclip" id="clipb3a408x"><rect x="46" y="0" width="132" height="260"/></clipPath><clipPath class="axesclip" id="clipb3a408y"><rect x="0" y="4" width="182" height="241"/></clipPath><clipPath class="axesclip" id="clipb3a408xy"><rect x="46" y="4" width="132" height="241"/></clipPath></g><g class="gradients"/><g class="patterns"/></defs><g class="bglayer"><rect class="bg" x="46" y="4" width="132" height="241" style="fill: rgb(0, 0, 0); fill-opacity: 0; stroke-width: 0;"/></g><g class="layer-below"><g class="imagelayer"/><g class="shapelayer"/></g><g class="cartesianlayer"><g class="subplot xy"><g class="layer-subplot"><g class="shapelayer"/><g class="imagelayer"/></g><g class="minor-gridlayer"><g class="x"/><g class="y"/></g><g class="gridlayer"><g class="x"/><g class="y"><path class="ygrid crisp" transform="translate(0,176.31)" d="M46,0h132" style="stroke: rgb(128, 128, 128); stroke-opacity: 0.3; stroke-width: 1px;"/><path class="ygrid crisp" transform="translate(0,107.62)" d="M46,0h132" style="stroke: rgb(128, 128, 128); stroke-opacity: 0.3; stroke-width: 1px;"/><path class="ygrid crisp" transform="translate(0,38.93)" d="M46,0h132" style="stroke: rgb(128, 128, 128); stroke-opacity: 0.3; stroke-width: 1px;"/></g></g><g class="zerolinelayer"><path class="yzl zl crisp" transform="translate(0,245)" d="M46,0h132" style="stroke: rgb(0, 0, 0); stroke-opacity: 1; stroke-width: 2px;"/></g><g class="layer-between"><g class="shapelayer"/><g class="imagelayer"/></g><path class="xlines-below"/><path class="ylines-below"/><g class="overlines-below"/><g class="xaxislayer-below"/><g class="yaxislayer-below"/><g class="overaxes-below"/><g class="overplot"><g class="xy" transform="translate(46,4)" clip-path="url(#clipb3a408xyplot)"><g class="boxlayer mlayer"><g class="trace boxes" style="opacity: 1;"><path class="box" d="M23.1,225.95H56.1M23.1,230.92H56.1V220.75H23.1ZM39.6,230.92V235.83M39.6,220.75V206.77M31.35,235.83H47.85M31.35,206.77H47.85" style="vector-effect: none; stroke-width: 1px; stroke: rgb(0, 0, 0); stroke-opacity: 1; fill: rgb(180, 180, 180); fill-opacity: 0.5;"/><g class="points"><path class="point" transform="translate(39.6,204.91)" d="M1,0A1,1 0 1,1 0,-1A1,1 0 0,1 1,0Z" style="opacity: 0.6; stroke-width: 0px; fill: rgb(0, 0, 0); fill-opacity: 1;"/><path class="point" transform="translate(39.6,186.67)" d="M1,0A1,1 0 1,1 0,-1A1,1 0 0,1 1,0Z" style="opacity: 0.6; stroke-width: 0px; fill: rgb(0, 0, 0); fill-opacity: 1;"/><path class="point" transform="translate(39.6,184.79)" d="M1,0A1,1 0 1,1 0,-1A1,1 0 0,1 1,0Z" style="opacity: 0.6; stroke-width: 0px; fill: rgb(0, 0, 0); fill-opacity: 1;"/><path class="point" transform="translate(39.6,177.37)" d="M1,0A1,1 0 1,1 0,-1A1,1 0 0,1 1,0Z" style="opacity: 0.6; stroke-width: 0px; fill: rgb(0, 0, 0); fill-opacity: 1;"/></g></g><g class="trace boxes" style="opacity: 1;"><path class="box" d="M75.9,114.36H108.9M75.9,159.88H108.9V48.21H75.9ZM92.4,159.88V218.17M92.4,48.21V12.05M84.15,218.17H100.65M84.15,12.05H100.65" style="vector-effect: none; stroke-width: 1px; stroke: rgb(0, 0, 0); stroke-opacity: 1; fill: rgb(255, 255, 255); fill-opacity: 0.5;"/><g class="points"/></g></g></g></g><g class="zerolinelayer-above"/><path class="xlines-above crisp" d="M0,0" style="fill: none;"/><path class="ylines-above crisp" d="M0,0" style="fill: none;"/><g class="overlines-above"/><g class="xaxislayer-above"><g class="xtick"><text text-anchor="middle" x="0" y="256" transform="translate(85.6,0)" style="font-family: 'Times New Roman'; font-size: 10px; fill: rgb(42, 63, 95); fill-opacity: 1; white-space: pre;">Natural</text></g><g class="xtick"><text text-anchor="middle" x="0" y="256" style="font-family: 'Times New Roman'; font-size: 10px; fill: rgb(42, 63, 95); fill-opacity: 1; white-space: pre;" transform="translate(138.4,0)">NPD</text></g></g><g class="yaxislayer-above"><g class="ytick"><text text-anchor="end" x="45" y="3.5" transform="translate(0,245)" style="font-family: 'Times New Roman'; font-size: 10px; fill: rgb(42, 63, 95); fill-opacity: 1; white-space: pre;">0</text></g><g class="ytick"><text text-anchor="end" x="45" y="3.5" style="font-family: 'Times New Roman'; font-size: 10px; fill: rgb(42, 63, 95); fill-opacity: 1; white-space: pre;" transform="translate(0,176.31)">1000</text></g><g class="ytick"><text text-anchor="end" x="45" y="3.5" style="font-family: 'Times New Roman'; font-size: 10px; fill: rgb(42, 63, 95); fill-opacity: 1; white-space: pre;" transform="translate(0,107.62)">2000</text></g><g class="ytick"><text text-anchor="end" x="45" y="3.5" style="font-family: 'Times New Roman'; font-size: 10px; fill: rgb(42, 63, 95); fill-opacity: 1; white-space: pre;" transform="translate(0,38.93)">3000</text></g></g><g class="overaxes-above"/></g></g><g class="polarlayer"/><g class="smithlayer"/><g class="ternarylayer"/><g class="geolayer"/><g class="funnelarealayer"/><g class="pielayer"/><g class="iciclelayer"/><g class="treemaplayer"/><g class="sunburstlayer"/><g class="glimages"/><defs id="topdefs-b3a408"><g class="clips"/></defs><g class="layer-above"><g class="imagelayer"/><g class="shapelayer"/></g><g class="infolayer"><g class="g-gtitle"><text class="gtitle" x="9.1" y="2" text-anchor="start" dy="0em" style="opacity: 1; font-family: 'Times New Roman'; font-size: 14px; fill: rgb(42, 63, 95); fill-opacity: 1; white-space: pre;">Robust vs standard prediction distance</text></g><g class="g-xtitle"/><g class="g-ytitle" transform="translate(4.7001953125,0)"><text class="ytitle" transform="rotate(-90,6.299999999999997,124.5)" x="6.299999999999997" y="124.5" text-anchor="middle" style="opacity: 1; font-family: 'Times New Roman'; font-size: 12px; fill: rgb(42, 63, 95); fill-opacity: 1; white-space: pre;">Distance (robust − standard)</text></g></g></svg>